<svg id="visual" viewBox="0 0 540 960" width="540" height="960" xmlns="http://www.w3.org/2000/svg" xmlns:xlink="http://www.w3.org/1999/xlink" version="1.1"><rect width="540" height="960" fill="#f6f6f6"></rect><g><g transform="translate(238 584)"><path d="M119.2 -39.6C133.4 5 109.3 61.1 69.8 87.9C30.3 114.7 -24.6 112.1 -61.3 85.2C-98 58.4 -116.5 7.3 -103.2 -36C-90 -79.3 -45 -114.7 3.8 -115.9C52.5 -117.1 105 -84.2 119.2 -39.6Z" fill="none" stroke="#044e43" stroke-width="14"></path></g><g transform="translate(407 219)"><path d="M76.6 -24.1C87 7.2 74.8 46.6 47.1 67.3C19.4 88 -23.7 90 -48.2 71.1C-72.7 52.1 -78.6 12.4 -67.5 -19.9C-56.3 -52.2 -28.2 -76.9 2.5 -77.7C33.1 -78.5 66.2 -55.4 76.6 -24.1Z" fill="none" stroke="#044e43" stroke-width="14"></path></g><g transform="translate(499 857)"><path d="M60.7 -17.8C69.8 8.1 62 41.4 40.5 57.5C18.9 73.6 -16.5 72.4 -38.6 55.7C-60.8 39 -69.7 6.7 -61.1 -18.6C-52.4 -43.9 -26.2 -62.2 -0.2 -62.1C25.9 -62 51.7 -43.6 60.7 -17.8Z" fill="none" stroke="#044e43" stroke-width="14"></path></g><g transform="translate(12 136)"><path d="M85.3 -23.5C97.7 10.5 86.1 56.5 56.8 77.7C27.4 98.8 -19.6 95.2 -48.5 72.8C-77.4 50.3 -88.3 9.1 -77.2 -23.1C-66.1 -55.3 -33.1 -78.4 1.7 -79C36.4 -79.5 72.9 -57.5 85.3 -23.5Z" fill="none" stroke="#044e43" stroke-width="14"></path></g><g transform="translate(30 936)"><path d="M106.5 -40.9C119.5 5.2 98.5 56 61.6 82.2C24.6 108.5 -28.3 110.2 -66.3 84.2C-104.4 58.3 -127.4 4.7 -113.9 -42.2C-100.3 -89.1 -50.2 -129.4 -1.7 -128.8C46.8 -128.3 93.6 -86.9 106.5 -40.9Z" stroke="#044e43" fill="none" stroke-width="14"></path></g></g></svg>