<svg id="visual" viewBox="0 0 960 540" width="960" height="540" xmlns="http://www.w3.org/2000/svg" xmlns:xlink="http://www.w3.org/1999/xlink" version="1.1"><rect width="960" height="540" fill="#f6f6f6"></rect><g><g transform="translate(516 42)"><path d="M113.6 -42C127 4.6 104 58 65.8 84.4C27.5 110.7 -25.9 110 -67.4 82.3C-108.9 54.6 -138.4 0 -125.2 -46.2C-112 -92.5 -56 -130.3 -3 -129.4C50 -128.4 100.1 -88.6 113.6 -42Z" fill="none" stroke="#044e43" stroke-width="14"></path></g><g transform="translate(921 392)"><path d="M115.2 -33.8C131.9 14 116 75.9 77.2 103.5C38.3 131.1 -23.5 124.3 -63.1 93.9C-102.7 63.5 -120.1 9.4 -105.8 -34.9C-91.6 -79.3 -45.8 -114 1.7 -114.5C49.2 -115.1 98.5 -81.6 115.2 -33.8Z" fill="none" stroke="#044e43" stroke-width="14"></path></g><g transform="translate(422 528)"><path d="M80.3 -23.9C91.4 8.1 79 50 52.4 68.5C25.7 86.9 -15.2 82.1 -41.8 61.8C-68.5 41.4 -80.8 5.6 -71.5 -24C-62.1 -53.5 -31.1 -76.8 1.8 -77.4C34.6 -77.9 69.2 -55.8 80.3 -23.9Z" fill="none" stroke="#044e43" stroke-width="14"></path></g><g transform="translate(48 394)"><path d="M86.1 -23.6C98.3 9.5 85.6 54.9 54.9 77.8C24.1 100.7 -24.7 100.9 -52.8 79C-81 57 -88.5 12.9 -76.3 -20.3C-64 -53.5 -32 -75.8 2.5 -76.6C37 -77.4 73.9 -56.7 86.1 -23.6Z" fill="none" stroke="#044e43" stroke-width="14"></path></g><g transform="translate(921 4)"><path d="M75 -26.6C86.5 11 77.7 52.9 50.4 73.8C23.1 94.6 -22.6 94.3 -51.8 72.8C-80.9 51.2 -93.5 8.4 -82.1 -29.1C-70.7 -66.6 -35.4 -98.7 -1.8 -98.1C31.8 -97.6 63.5 -64.3 75 -26.6Z" stroke="#044e43" fill="none" stroke-width="14"></path></g></g></svg>