<svg id="visual" viewBox="0 0 960 540" width="960" height="540" xmlns="http://www.w3.org/2000/svg" xmlns:xlink="http://www.w3.org/1999/xlink" version="1.1"><path d="M0 114L53.3 132C106.7 150 213.3 186 320 202.3C426.7 218.7 533.3 215.3 640 211.8C746.7 208.3 853.3 204.7 906.7 202.8L960 201L960 0L906.7 0C853.3 0 746.7 0 640 0C533.3 0 426.7 0 320 0C213.3 0 106.7 0 53.3 0L0 0Z" fill="#ff7a72"></path><path d="M0 357L53.3 360.7C106.7 364.3 213.3 371.7 320 372.7C426.7 373.7 533.3 368.3 640 384.5C746.7 400.7 853.3 438.3 906.7 457.2L960 476L960 199L906.7 200.8C853.3 202.7 746.7 206.3 640 209.8C533.3 213.3 426.7 216.7 320 200.3C213.3 184 106.7 148 53.3 130L0 112Z" fill="#f42f2f"></path><path d="M0 541L53.3 541C106.7 541 213.3 541 320 541C426.7 541 533.3 541 640 541C746.7 541 853.3 541 906.7 541L960 541L960 474L906.7 455.2C853.3 436.3 746.7 398.7 640 382.5C533.3 366.3 426.7 371.7 320 370.7C213.3 369.7 106.7 362.3 53.3 358.7L0 355Z" fill="#b61e24"></path></svg>