<svg id="visual" viewBox="0 0 450 900" width="450" height="900" xmlns="http://www.w3.org/2000/svg" xmlns:xlink="http://www.w3.org/1999/xlink" version="1.1"><path d="M0 343L25 355C50 367 100 391 150 368.5C200 346 250 277 300 259C350 241 400 274 425 290.5L450 307L450 0L425 0C400 0 350 0 300 0C250 0 200 0 150 0C100 0 50 0 25 0L0 0Z" fill="#ff7a72"></path><path d="M0 784L25 761.5C50 739 100 694 150 692.5C200 691 250 733 300 746.5C350 760 400 745 425 737.5L450 730L450 305L425 288.5C400 272 350 239 300 257C250 275 200 344 150 366.5C100 389 50 365 25 353L0 341Z" fill="#f42f2f"></path><path d="M0 901L25 901C50 901 100 901 150 901C200 901 250 901 300 901C350 901 400 901 425 901L450 901L450 728L425 735.5C400 743 350 758 300 744.5C250 731 200 689 150 690.5C100 692 50 737 25 759.5L0 782Z" fill="#b61e24"></path></svg>