<svg id="visual" viewBox="0 0 960 540" width="960" height="540" xmlns="http://www.w3.org/2000/svg" xmlns:xlink="http://www.w3.org/1999/xlink" version="1.1"><path d="M0 114L53.3 97.8C106.7 81.7 213.3 49.3 320 35C426.7 20.7 533.3 24.3 640 29.8C746.7 35.3 853.3 42.7 906.7 46.3L960 50L960 0L906.7 0C853.3 0 746.7 0 640 0C533.3 0 426.7 0 320 0C213.3 0 106.7 0 53.3 0L0 0Z" fill="#59b8a5"></path><path d="M0 368L53.3 345.5C106.7 323 213.3 278 320 259.2C426.7 240.3 533.3 247.7 640 272.8C746.7 298 853.3 341 906.7 362.5L960 384L960 48L906.7 44.3C853.3 40.7 746.7 33.3 640 27.8C533.3 22.3 426.7 18.7 320 33C213.3 47.3 106.7 79.7 53.3 95.8L0 112Z" fill="#b9ddc5"></path><path d="M0 438L53.3 445.3C106.7 452.7 213.3 467.3 320 444.8C426.7 422.3 533.3 362.7 640 355.3C746.7 348 853.3 393 906.7 415.5L960 438L960 382L906.7 360.5C853.3 339 746.7 296 640 270.8C533.3 245.7 426.7 238.3 320 257.2C213.3 276 106.7 321 53.3 343.5L0 366Z" fill="#b9ddc5"></path><path d="M0 541L53.3 541C106.7 541 213.3 541 320 541C426.7 541 533.3 541 640 541C746.7 541 853.3 541 906.7 541L960 541L960 436L906.7 413.5C853.3 391 746.7 346 640 353.3C533.3 360.7 426.7 420.3 320 442.8C213.3 465.3 106.7 450.7 53.3 443.3L0 436Z" fill="#59b8a5"></path></svg>