<svg id="visual" viewBox="0 0 1300 900" width="1300" height="900" xmlns="http://www.w3.org/2000/svg" xmlns:xlink="http://www.w3.org/1999/xlink" version="1.1"><rect x="0" y="0" width="1300" height="900" fill="#ededed"></rect><path d="M0 312L108.3 298.7C216.7 285.3 433.3 258.7 650 248.5C866.7 238.3 1083.3 244.7 1191.7 247.8L1300 251L1300 0L1191.7 0C1083.3 0 866.7 0 650 0C433.3 0 216.7 0 108.3 0L0 0Z" fill="#87e599"></path><path d="M0 112L108.3 114.7C216.7 117.3 433.3 122.7 650 134.3C866.7 146 1083.3 164 1191.7 173L1300 182L1300 0L1191.7 0C1083.3 0 866.7 0 650 0C433.3 0 216.7 0 108.3 0L0 0Z" fill="#3c9772"></path><path d="M0 52L108.3 57.8C216.7 63.7 433.3 75.3 650 74.7C866.7 74 1083.3 61 1191.7 54.5L1300 48L1300 0L1191.7 0C1083.3 0 866.7 0 650 0C433.3 0 216.7 0 108.3 0L0 0Z" fill="#044e43"></path></svg>