<svg id="visual" viewBox="0 0 1300 900" width="1300" height="900" xmlns="http://www.w3.org/2000/svg" xmlns:xlink="http://www.w3.org/1999/xlink" version="1.1"><rect x="0" y="0" width="1300" height="900" fill="#ededed"></rect><path d="M835 900L840.7 875C846.3 850 857.7 800 840.8 750C824 700 779 650 792.2 600C805.3 550 876.7 500 885.5 450C894.3 400 840.7 350 833 300C825.3 250 863.7 200 854.3 150C845 100 788 50 759.5 25L731 0L1300 0L1300 25C1300 50 1300 100 1300 150C1300 200 1300 250 1300 300C1300 350 1300 400 1300 450C1300 500 1300 550 1300 600C1300 650 1300 700 1300 750C1300 800 1300 850 1300 875L1300 900Z" fill="#87e599"></path><path d="M1033 900L1009.2 875C985.3 850 937.7 800 930.8 750C924 700 958 650 960.3 600C962.7 550 933.3 500 937.8 450C942.3 400 980.7 350 997.5 300C1014.3 250 1009.7 200 1007 150C1004.3 100 1003.7 50 1003.3 25L1003 0L1300 0L1300 25C1300 50 1300 100 1300 150C1300 200 1300 250 1300 300C1300 350 1300 400 1300 450C1300 500 1300 550 1300 600C1300 650 1300 700 1300 750C1300 800 1300 850 1300 875L1300 900Z" fill="#3c9772"></path><path d="M1128 900L1119.7 875C1111.3 850 1094.7 800 1104.5 750C1114.3 700 1150.7 650 1173.8 600C1197 550 1207 500 1189.3 450C1171.7 400 1126.3 350 1115.8 300C1105.3 250 1129.7 200 1146.7 150C1163.7 100 1173.3 50 1178.2 25L1183 0L1300 0L1300 25C1300 50 1300 100 1300 150C1300 200 1300 250 1300 300C1300 350 1300 400 1300 450C1300 500 1300 550 1300 600C1300 650 1300 700 1300 750C1300 800 1300 850 1300 875L1300 900Z" fill="#044e43"></path></svg>