<svg id="visual" viewBox="0 0 450 900" width="450" height="900" xmlns="http://www.w3.org/2000/svg" xmlns:xlink="http://www.w3.org/1999/xlink" version="1.1"><rect x="0" y="0" width="450" height="900" fill="#ededed"></rect><path d="M290 900L292 875C294 850 298 800 292.2 750C286.3 700 270.7 650 275.2 600C279.7 550 304.3 500 307.3 450C310.3 400 291.7 350 289 300C286.3 250 299.7 200 296.5 150C293.3 100 273.7 50 263.8 25L254 0L450 0L450 25C450 50 450 100 450 150C450 200 450 250 450 300C450 350 450 400 450 450C450 500 450 550 450 600C450 650 450 700 450 750C450 800 450 850 450 875L450 900Z" fill="#87e599"></path><path d="M358 900L349.8 875C341.7 850 325.3 800 323 750C320.7 700 332.3 650 333.2 600C334 550 324 500 325.5 450C327 400 340 350 345.7 300C351.3 250 349.7 200 348.8 150C348 100 348 50 348 25L348 0L450 0L450 25C450 50 450 100 450 150C450 200 450 250 450 300C450 350 450 400 450 450C450 500 450 550 450 600C450 650 450 700 450 750C450 800 450 850 450 875L450 900Z" fill="#3c9772"></path><path d="M391 900L388.2 875C385.3 850 379.7 800 383.2 750C386.7 700 399.3 650 407.3 600C415.3 550 418.7 500 412.5 450C406.3 400 390.7 350 387 300C383.3 250 391.7 200 397.5 150C403.3 100 406.7 50 408.3 25L410 0L450 0L450 25C450 50 450 100 450 150C450 200 450 250 450 300C450 350 450 400 450 450C450 500 450 550 450 600C450 650 450 700 450 750C450 800 450 850 450 875L450 900Z" fill="#044e43"></path></svg>