<svg id="visual" viewBox="0 0 400 900" width="400" height="900" xmlns="http://www.w3.org/2000/svg" xmlns:xlink="http://www.w3.org/1999/xlink" version="1.1"><rect x="0" y="0" width="400" height="900" fill="#ededed"></rect><path d="M262 900L268 825C274 750 286 600 290.5 450C295 300 292 150 290.5 75L289 0L400 0L400 75C400 150 400 300 400 450C400 600 400 750 400 825L400 900Z" fill="#87e599"></path><path d="M351 900L349.8 825C348.7 750 346.3 600 341.2 450C336 300 328 150 324 75L320 0L400 0L400 75C400 150 400 300 400 450C400 600 400 750 400 825L400 900Z" fill="#3c9772"></path><path d="M377 900L374.5 825C372 750 367 600 367.3 450C367.7 300 373.3 150 376.2 75L379 0L400 0L400 75C400 150 400 300 400 450C400 600 400 750 400 825L400 900Z" fill="#044e43"></path></svg>