<svg id="visual" viewBox="0 0 390 844" width="390" height="844" xmlns="http://www.w3.org/2000/svg" xmlns:xlink="http://www.w3.org/1999/xlink" version="1.1"><rect x="0" y="0" width="390" height="844" fill="#ededed"></rect><path d="M256 844L261.7 773.7C267.3 703.3 278.7 562.7 283 422C287.3 281.3 284.7 140.7 283.3 70.3L282 0L390 0L390 70.3C390 140.7 390 281.3 390 422C390 562.7 390 703.3 390 773.7L390 844Z" fill="#87e599"></path><path d="M342 844L340.8 773.7C339.7 703.3 337.3 562.7 332.3 422C327.3 281.3 319.7 140.7 315.8 70.3L312 0L390 0L390 70.3C390 140.7 390 281.3 390 422C390 562.7 390 703.3 390 773.7L390 844Z" fill="#3c9772"></path><path d="M368 844L365.5 773.7C363 703.3 358 562.7 358.3 422C358.7 281.3 364.3 140.7 367.2 70.3L370 0L390 0L390 70.3C390 140.7 390 281.3 390 422C390 562.7 390 703.3 390 773.7L390 844Z" fill="#044e43"></path></svg>