<svg id="visual" viewBox="0 0 390 844" width="390" height="844" xmlns="http://www.w3.org/2000/svg" xmlns:xlink="http://www.w3.org/1999/xlink" version="1.1"><rect x="0" y="0" width="390" height="844" fill="#ededed"></rect><path d="M0 292L32.5 279.5C65 267 130 242 195 232.7C260 223.3 325 229.7 357.5 232.8L390 236L390 0L357.5 0C325 0 260 0 195 0C130 0 65 0 32.5 0L0 0Z" fill="#87e599"></path><path d="M0 105L32.5 107.5C65 110 130 115 195 125.8C260 136.7 325 153.3 357.5 161.7L390 170L390 0L357.5 0C325 0 260 0 195 0C130 0 65 0 32.5 0L0 0Z" fill="#3c9772"></path><path d="M0 49L32.5 54.3C65 59.7 130 70.3 195 69.7C260 69 325 57 357.5 51L390 45L390 0L357.5 0C325 0 260 0 195 0C130 0 65 0 32.5 0L0 0Z" fill="#044e43"></path></svg>